<?xml version="1.0" encoding="UTF-8"?>
<svg width="45px" height="56px" viewBox="0 0 45 56" version="1.1" xmlns="http://www.w3.org/2000/svg" xmlns:xlink="http://www.w3.org/1999/xlink">
    <!-- Generator: Sketch 49.1 (51147) - http://www.bohemiancoding.com/sketch -->
    <title>通用图标</title>
    <desc>Created with Sketch.</desc>
    <defs></defs>
    <g id="Icon-/-图标" stroke="none" stroke-width="1" fill="none" fill-rule="evenodd" opacity="0.5">
        <g id="图标" transform="translate(-1017.000000, -1084.000000)" fill="#16C4C6">
            <g id="通用图标" transform="translate(1017.000000, 1084.000000)">
                <path d="M1.5,1.5 L1.5,54.5 L43.3,54.5 L43.3,11.578 L32.87,1.5 L1.5,1.5 Z M0,0 L33.476,0 L44.8,10.941 L44.8,56 L0,56 L0,0 Z M1.475,56 C0.553,56 0,55.232 0,54.464 L0,39.822 L44.8,39.822 L44.8,54.464 C44.616,55.232 43.878,56 43.14,56 L1.476,56 L1.475,56 Z M32.377,0.617 L33.207,0.617 L44.8,11.84 L32.377,11.84 L32.377,0.617 Z" id="Shape" fill-rule="nonzero"></path>
                <rect id="Rectangle-6" x="7" y="15" width="18" height="3"></rect>
                <rect id="Rectangle-6-Copy" x="7" y="21" width="31" height="3"></rect>
                <rect id="Rectangle-6-Copy-2" x="7" y="27" width="31" height="3"></rect>
            </g>
        </g>
    </g>
</svg>