<?xml version="1.0" encoding="UTF-8"?>
<svg width="45px" height="56px" viewBox="0 0 45 56" version="1.1" xmlns="http://www.w3.org/2000/svg" xmlns:xlink="http://www.w3.org/1999/xlink">
    <!-- Generator: Sketch 49.1 (51147) - http://www.bohemiancoding.com/sketch -->
    <title>json</title>
    <desc>Created with Sketch.</desc>
    <defs></defs>
    <g id="Icon-/-图标" stroke="none" stroke-width="1" fill="none" fill-rule="evenodd" opacity="0.5">
        <g id="图标" transform="translate(-919.000000, -1084.000000)" fill="#16C4C6" fill-rule="nonzero">
            <g id="json" transform="translate(919.000000, 1084.000000)">
                <path d="M1.5,1.5 L1.5,54.5 L43.3,54.5 L43.3,11.578 L32.87,1.5 L1.5,1.5 Z M0,0 L33.476,0 L44.8,10.941 L44.8,56 L0,56 L0,0 Z M1.475,56 C0.553,56 0,55.232 0,54.464 L0,39.822 L44.8,39.822 L44.8,54.464 C44.616,55.232 43.878,56 43.14,56 L1.476,56 L1.475,56 Z M32.377,0.617 L33.207,0.617 L44.8,11.84 L32.377,11.84 L32.377,0.617 Z" id="Shape"></path>
                <path d="M13,14 L15,14 L15,16.1111111 L13,16.1111111 L13,21.3888889 C13,22.5548234 12.1045695,23.5 11,23.5 C12.1045695,23.5 13,24.4451766 13,25.6111111 L13,30.8888889 L15,30.8888889 L15,33 L13,33 C11.93,32.715 11,32.05 11,30.8888889 L11,26.6666667 C11,26.1067652 10.7892863,25.5697958 10.4142136,25.1738857 C10.0391408,24.7779756 9.53043298,24.5555556 9.00000001,24.5555556 L8,24.5555556 L8,22.4444444 L9.00000001,22.4444444 C10.1045695,22.4444444 11,21.4992678 11,20.3333333 L11,16.1111111 C11,14.9451766 11.8954305,14 13,14 Z M32,14 C33.1045695,14 34,14.9451766 34,16.1111111 L34,20.3333333 C34,21.4992678 34.8954305,22.4444444 36,22.4444444 L37,22.4444444 L37,24.5555556 L36,24.5555556 C35.469567,24.5555556 34.9608592,24.7779756 34.5857864,25.1738857 C34.2107137,25.5697958 34,26.1067652 34,26.6666667 L34,30.8888889 C34,32.0548234 33.1045695,33 32,33 L30,33 L30,30.8888889 L32,30.8888889 L32,25.6111111 C32,25.0512096 32.2107137,24.5142403 32.5857864,24.1183301 C32.9608592,23.72242 33.469567,23.5 34,23.5 C33.469567,23.5 32.9608592,23.27758 32.5857864,22.8816699 C32.2107137,22.4857597 32,21.9487904 32,21.3888889 L32,16.1111111 L30,16.1111111 L30,14 L32,14 Z M22.5,27 C23.3284271,27 24,27.6715729 24,28.5 C24,29.3284271 23.3284271,30 22.5,30 C21.6715729,30 21,29.3284271 21,28.5 C21,27.6715729 21.6715729,27 22.5,27 Z M16.5,27 C16.8978247,27 17.2793556,27.1580353 17.5606602,27.4393398 C17.8419647,27.7206444 18,28.1021753 18,28.5 C18,29.3284271 17.3284271,30 16.5,30 C15.6715729,30 15,29.3284271 15,28.5 C15,27.6715729 15.6715729,27 16.5,27 Z M28.5,27 C29.3284271,27 30,27.6715729 30,28.5 C30,29.3284271 29.3284271,30 28.5,30 C27.6715729,30 27,29.3284271 27,28.5 C27,27.6715729 27.6715729,27 28.5,27 Z" id="Shape"></path>
            </g>
        </g>
    </g>
</svg>